# xmcd
#
# Track frame offsets: 
#        150
#        15152
#        36053
#        54293
#        76351
#
# Disc length: 1276 seconds
#
# Revision: 0
# Processed by: cddbd v1.5.2PL0 Copyright (c) Steve Scherf et al.
# Submitted via: ExactAudioCopy v1.3
#
DISCID=2804fa05
DTITLE=Lucky Peterson - One Guitar Master [EP]
DYEAR=2011
DGENRE=Blues
TTITLE0=Money Changes Everything
TTITLE1=Been so Long (feat. Tamara Peterson)
TTITLE2=Ain't No In Between
TTITLE3=Trouble
TTITLE4=Armed and Dangerous
EXTD=
EXTT0=
EXTT1=
EXTT2=
EXTT3=
EXTT4=
PLAYORDER=
